# xmcd
#
# Track frame offsets:
#	150
#	15972
#	26995
#	40562
#	61135
#	74087
#	89517
#	102320
#	115640
#	126522
#	138360
#	151662
#	163750
#	180522
#	192297
#	204675
#	217932
#	236217
#
# Disc length: 3292 seconds
#
# Revision: 1
# Processed by: cddbd v1.4PL0 Copyright (c) Steve Scherf et al.
# Submitted via: audiograbber 1.80.04
#
DISCID=f90cda12
DTITLE=Various Artist - Sweet Soul Classics
DYEAR=1992
DGENRE=Soul
TTITLE0=Rufus Thomas - If There Were No Music
TTITLE1=Tymes - My Babe
TTITLE2=Eddie Floyd - Knock On Wood
TTITLE3=Gladys Knight And The Pips - Midnight Train To Georgia
TTITLE4=Percy Sledge - When A Man Loves A Women
TTITLE5=Al Wilson - Show And Tell
TTITLE6=Ike and Tina Turner - A Fool In Love
TTITLE7=Ben E. King - Stand By Me
TTITLE8=Aretha Franklin - Respect
TTITLE9=Sam and Dave - Soul Man
TTITLE10=Clarence Carte - Patches
TTITLE11=Platters - (You've Got) The Magic Touch
TTITLE12=Solomon Burke - Hold On! I'm Comin'
TTITLE13=The Tams - Hey Girl (Don't Bother Me)
TTITLE14=Dionne Warwick - Don't Make Me Over
TTITLE15=Drifters - On Broadway
TTITLE16=Brook Benton - Rainy Night In Georgia
TTITLE17=Tymes - Lovers Plea
EXTD=
EXTT0=
EXTT1=
EXTT2=
EXTT3=
EXTT4=
EXTT5=
EXTT6=
EXTT7=
EXTT8=
EXTT9=
EXTT10=
EXTT11=
EXTT12=
EXTT13=
EXTT14=
EXTT15=
EXTT16=
EXTT17=
PLAYORDER=
